<svg xmlns="http://www.w3.org/2000/svg" xmlns:xlink="http://www.w3.org/1999/xlink" width="40" zoomAndPan="magnify" viewBox="0 0 30 30.000001" height="40" preserveAspectRatio="xMidYMid meet" version="1.0"><defs><clipPath id="66574b787e"><path d="M 0.484375 0 L 29.515625 0 L 29.515625 29.03125 L 0.484375 29.03125 Z M 0.484375 0 " clip-rule="nonzero"/></clipPath><clipPath id="40e534cb52"><path d="M 5.304688 7 L 19 7 L 19 20.945312 L 5.304688 20.945312 Z M 5.304688 7 " clip-rule="nonzero"/></clipPath><clipPath id="ae0e4b5f67"><path d="M 5.304688 5.703125 L 22 5.703125 L 22 20.945312 L 5.304688 20.945312 Z M 5.304688 5.703125 " clip-rule="nonzero"/></clipPath></defs><g clip-path="url(#66574b787e)"><path fill="none" d="M 0.484375 0 L 29.515625 0 L 29.515625 29.03125 L 0.484375 29.03125 Z M 0.484375 0 " fill-opacity="1" fill-rule="nonzero"/><path fill="none" d="M 0.484375 0 L 29.515625 0 L 29.515625 29.03125 L 0.484375 29.03125 Z M 0.484375 0 " fill-opacity="1" fill-rule="nonzero"/></g><g clip-path="url(#40e534cb52)"><path fill="#008080" d="M 18.03125 14.34375 C 18.03125 14.761719 17.992188 15.175781 17.910156 15.585938 C 17.828125 15.996094 17.707031 16.394531 17.546875 16.78125 C 17.386719 17.164062 17.191406 17.53125 16.960938 17.878906 C 16.726562 18.226562 16.464844 18.546875 16.167969 18.84375 C 15.875 19.136719 15.554688 19.402344 15.207031 19.632812 C 14.859375 19.867188 14.492188 20.0625 14.105469 20.222656 C 13.71875 20.382812 13.324219 20.503906 12.914062 20.582031 C 12.503906 20.664062 12.089844 20.707031 11.671875 20.707031 C 11.253906 20.707031 10.839844 20.664062 10.429688 20.582031 C 10.023438 20.503906 9.625 20.382812 9.238281 20.222656 C 8.851562 20.0625 8.484375 19.867188 8.136719 19.632812 C 7.792969 19.402344 7.46875 19.136719 7.175781 18.84375 C 6.878906 18.546875 6.617188 18.226562 6.382812 17.878906 C 6.152344 17.53125 5.957031 17.164062 5.796875 16.78125 C 5.636719 16.394531 5.515625 15.996094 5.433594 15.585938 C 5.351562 15.175781 5.3125 14.761719 5.3125 14.34375 C 5.3125 13.929688 5.351562 13.515625 5.433594 13.105469 C 5.515625 12.695312 5.636719 12.296875 5.796875 11.910156 C 5.957031 11.527344 6.152344 11.160156 6.382812 10.8125 C 6.617188 10.464844 6.878906 10.144531 7.175781 9.847656 C 7.46875 9.554688 7.792969 9.289062 8.136719 9.058594 C 8.484375 8.824219 8.851562 8.628906 9.238281 8.46875 C 9.625 8.308594 10.023438 8.1875 10.429688 8.109375 C 10.839844 8.027344 11.253906 7.984375 11.671875 7.984375 C 12.089844 7.984375 12.503906 8.027344 12.914062 8.109375 C 13.324219 8.1875 13.71875 8.308594 14.105469 8.46875 C 14.492188 8.628906 14.859375 8.824219 15.207031 9.058594 C 15.554688 9.289062 15.875 9.554688 16.167969 9.847656 C 16.464844 10.144531 16.726562 10.464844 16.960938 10.8125 C 17.191406 11.160156 17.386719 11.527344 17.546875 11.910156 C 17.707031 12.296875 17.828125 12.695312 17.910156 13.105469 C 17.992188 13.515625 18.03125 13.929688 18.03125 14.34375 Z M 18.03125 14.34375 " fill-opacity="1" fill-rule="nonzero"/></g><g clip-path="url(#ae0e4b5f67)"><path stroke-linecap="butt" transform="matrix(0.750034, 0, 0, 0.750034, 5.306378, 5.705294)" fill="none" stroke-linejoin="miter" d="M 20.772836 8.913366 C 20.772836 13.355871 17.174042 16.959873 12.731538 16.959873 C 8.283825 16.959873 4.685031 13.355871 4.685031 8.913366 C 4.685031 4.470861 8.283825 0.872068 12.731538 0.872068 C 17.174042 0.872068 20.772836 4.470861 20.772836 8.913366 Z M 20.772836 8.913366 " stroke="#222335" stroke-width="1.739" stroke-opacity="1" stroke-miterlimit="4"/></g></svg>