<svg xmlns="http://www.w3.org/2000/svg" xmlns:xlink="http://www.w3.org/1999/xlink" width="40" zoomAndPan="magnify" viewBox="0 0 30 30.000001" height="40" preserveAspectRatio="xMidYMid meet" version="1.0"><defs><clipPath id="92553e0321"><path d="M 0.484375 0 L 29.515625 0 L 29.515625 29.03125 L 0.484375 29.03125 Z M 0.484375 0 " clip-rule="nonzero"/></clipPath><clipPath id="ba0fc60814"><path d="M 7.671875 8 L 20 8 L 20 21 L 7.671875 21 Z M 7.671875 8 " clip-rule="nonzero"/></clipPath><clipPath id="f1c3c914f2"><path d="M 7.671875 5.847656 L 23.640625 5.847656 L 23.640625 21.089844 L 7.671875 21.089844 Z M 7.671875 5.847656 " clip-rule="nonzero"/></clipPath></defs><g clip-path="url(#92553e0321)"><path fill="none" d="M 0.484375 0 L 29.515625 0 L 29.515625 29.03125 L 0.484375 29.03125 Z M 0.484375 0 " fill-opacity="1" fill-rule="nonzero"/><path fill="none" d="M 0.484375 0 L 29.515625 0 L 29.515625 29.03125 L 0.484375 29.03125 Z M 0.484375 0 " fill-opacity="1" fill-rule="nonzero"/></g><g clip-path="url(#ba0fc60814)"><path fill="#222335" d="M 13.6875 20.121094 C 17.007812 20.121094 19.699219 17.429688 19.699219 14.109375 C 19.699219 10.789062 17.007812 8.09375 13.6875 8.09375 C 10.367188 8.09375 7.671875 10.789062 7.671875 14.109375 C 7.671875 17.429688 10.367188 20.121094 13.6875 20.121094 Z M 13.6875 20.121094 " fill-opacity="1" fill-rule="nonzero"/></g><g clip-path="url(#f1c3c914f2)"><path stroke-linecap="butt" transform="matrix(0.709065, 0, 0, 0.709065, 7.673702, 5.847183)" fill="none" stroke-linejoin="miter" d="M 20.766398 9.046465 C 20.766398 13.486729 17.163505 17.089623 12.723241 17.089623 C 8.277468 17.089623 4.674574 13.486729 4.674574 9.046465 C 4.674574 4.600692 8.277468 0.997798 12.723241 0.997798 C 17.163505 0.997798 20.766398 4.600692 20.766398 9.046465 Z M 20.766398 9.046465 " stroke="#008080" stroke-width="1.739" stroke-opacity="1" stroke-miterlimit="4"/></g></svg>