<svg xmlns="http://www.w3.org/2000/svg" xmlns:xlink="http://www.w3.org/1999/xlink" width="505" zoomAndPan="magnify" viewBox="0 0 378.75 378.749986" height="505" preserveAspectRatio="xMidYMid meet" version="1.0"><defs><clipPath id="d2776f8f5a"><path d="M 0 0 L 378.5 0 L 378.5 378.5 L 0 378.5 Z M 0 0 " clip-rule="nonzero"/></clipPath></defs><g clip-path="url(#d2776f8f5a)"><path fill="#ffffff" d="M 0 0 L 378.5 0 L 378.5 378.5 L 0 378.5 Z M 0 0 " fill-opacity="1" fill-rule="nonzero"/><path fill="#ffffff" d="M 0 0 L 378.5 0 L 378.5 378.5 L 0 378.5 Z M 0 0 " fill-opacity="1" fill-rule="nonzero"/></g><path fill="#29a3a3" d="M 136.691406 148.507812 C 114.1875 148.507812 95.949219 166.746094 95.949219 189.246094 C 95.949219 211.75 114.191406 229.988281 136.691406 229.988281 L 177.429688 229.988281 L 177.429688 190.070312 C 177.429688 189.796875 177.425781 189.523438 177.425781 189.246094 C 177.425781 188.972656 177.429688 188.699219 177.429688 188.425781 L 177.429688 148.507812 Z M 177.429688 124.851562 L 136.691406 124.851562 C 114.191406 124.851562 95.949219 106.613281 95.949219 84.109375 C 95.949219 61.609375 114.191406 43.371094 136.691406 43.371094 L 177.429688 43.371094 Z M 201.085938 43.371094 L 201.085938 124.851562 L 241.820312 124.851562 C 264.320312 124.851562 282.566406 106.613281 282.566406 84.109375 C 282.566406 61.609375 264.324219 43.371094 241.824219 43.371094 Z M 241.820312 148.507812 C 219.539062 148.507812 201.4375 166.398438 201.085938 188.59375 L 201.085938 189.898438 C 201.4375 212.101562 219.539062 229.988281 241.824219 229.988281 C 264.324219 229.988281 282.566406 211.75 282.566406 189.246094 C 282.566406 166.746094 264.320312 148.507812 241.820312 148.507812 Z M 136.691406 253.644531 C 114.191406 253.644531 95.945312 271.890625 95.945312 294.390625 C 95.945312 316.894531 114.1875 335.132812 136.6875 335.132812 C 159.1875 335.132812 177.429688 316.894531 177.429688 294.390625 L 177.429688 253.644531 Z M 136.691406 253.644531 " fill-opacity="1" fill-rule="evenodd"/></svg>