<svg xmlns="http://www.w3.org/2000/svg" xmlns:xlink="http://www.w3.org/1999/xlink" width="505" zoomAndPan="magnify" viewBox="0 0 378.75 378.749986" height="505" preserveAspectRatio="xMidYMid meet" version="1.0"><defs><clipPath id="e361817b50"><path d="M 0 0 L 378.5 0 L 378.5 378.5 L 0 378.5 Z M 0 0 " clip-rule="nonzero"/></clipPath></defs><g clip-path="url(#e361817b50)"><path fill="#ffffff" d="M 0 0 L 378.5 0 L 378.5 378.5 L 0 378.5 Z M 0 0 " fill-opacity="1" fill-rule="nonzero"/><path fill="#ffffff" d="M 0 0 L 378.5 0 L 378.5 378.5 L 0 378.5 Z M 0 0 " fill-opacity="1" fill-rule="nonzero"/><path fill="#29a3a3" d="M 310.726562 32.289062 C 341.238281 53.839844 363.472656 87.234375 372.933594 123 C 382.15625 158.996094 378.84375 197.367188 370.804688 237.867188 C 362.523438 278.367188 349.277344 320.761719 320.660156 346.339844 C 292.039062 372.15625 247.570312 381.15625 205.703125 377.839844 C 163.839844 374.527344 124.335938 358.65625 94.296875 333.550781 C 64.023438 308.210938 43.207031 273.394531 25.46875 234.078125 C 7.726562 194.761719 -6.9375 150.707031 3.46875 113.523438 C 13.640625 76.101562 48.648438 45.550781 86.019531 26.128906 C 123.628906 6.945312 163.363281 -0.871094 202.628906 0.078125 C 241.894531 1.023438 280.449219 10.734375 310.726562 32.289062 Z M 310.726562 32.289062 " fill-opacity="1" fill-rule="nonzero"/></g></svg>