<svg xmlns="http://www.w3.org/2000/svg" xmlns:xlink="http://www.w3.org/1999/xlink" width="505" zoomAndPan="magnify" viewBox="0 0 378.75 378.749986" height="505" preserveAspectRatio="xMidYMid meet" version="1.0"><defs><clipPath id="1954cff503"><path d="M 0 0 L 378.5 0 L 378.5 378.5 L 0 378.5 Z M 0 0 " clip-rule="nonzero"/></clipPath></defs><g clip-path="url(#1954cff503)"><path fill="#ffffff" d="M 0 0 L 378.5 0 L 378.5 378.5 L 0 378.5 Z M 0 0 " fill-opacity="1" fill-rule="nonzero"/><path fill="#ffffff" d="M 0 0 L 378.5 0 L 378.5 378.5 L 0 378.5 Z M 0 0 " fill-opacity="1" fill-rule="nonzero"/></g><path fill="#29a3a3" d="M 341.234375 61.097656 L 273.875 28.667969 C 270.074219 26.835938 265.792969 26.230469 261.628906 26.9375 C 257.464844 27.644531 253.625 29.628906 250.640625 32.617188 L 30.140625 233.640625 C 27.464844 236.070312 25.863281 239.460938 25.6875 243.070312 C 25.515625 246.675781 26.78125 250.207031 29.207031 252.882812 C 29.5 253.199219 29.789062 253.503906 30.105469 253.78125 L 48.109375 270.136719 C 50.460938 272.277344 53.488281 273.527344 56.667969 273.667969 C 59.84375 273.808594 62.96875 272.832031 65.503906 270.910156 L 331.09375 69.507812 C 333.101562 67.988281 335.492188 67.054688 338 66.816406 C 340.507812 66.582031 343.03125 67.046875 345.285156 68.167969 C 347.542969 69.285156 349.441406 71.011719 350.769531 73.152344 C 352.097656 75.292969 352.800781 77.761719 352.800781 80.28125 L 352.800781 79.496094 C 352.800781 75.652344 351.714844 71.886719 349.667969 68.632812 C 347.625 65.375 344.699219 62.765625 341.234375 61.097656 Z M 341.234375 61.097656 " fill-opacity="1" fill-rule="nonzero"/><path fill="#29a3a3" d="M 341.234375 317.402344 L 273.875 349.84375 C 270.070312 351.671875 265.792969 352.273438 261.628906 351.566406 C 257.46875 350.859375 253.628906 348.878906 250.640625 345.894531 L 30.140625 144.859375 C 27.464844 142.429688 25.863281 139.039062 25.6875 135.429688 C 25.515625 131.824219 26.78125 128.292969 29.207031 125.617188 C 29.5 125.300781 29.789062 124.996094 30.105469 124.71875 L 48.109375 108.363281 C 50.464844 106.210938 53.496094 104.957031 56.683594 104.816406 C 59.867188 104.675781 63.003906 105.65625 65.539062 107.589844 L 331.09375 308.992188 C 333.101562 310.511719 335.492188 311.445312 338 311.683594 C 340.507812 311.917969 343.03125 311.453125 345.285156 310.332031 C 347.542969 309.214844 349.441406 307.484375 350.769531 305.347656 C 352.097656 303.207031 352.800781 300.738281 352.800781 298.21875 L 352.800781 299.0625 C 352.789062 302.894531 351.695312 306.648438 349.652344 309.890625 C 347.605469 313.136719 344.691406 315.738281 341.234375 317.402344 Z M 341.234375 317.402344 " fill-opacity="1" fill-rule="nonzero"/><path fill="#29a3a3" d="M 273.871094 349.84375 C 270.066406 351.671875 265.789062 352.273438 261.625 351.566406 C 257.464844 350.859375 253.625 348.878906 250.636719 345.894531 C 252.316406 347.550781 254.445312 348.675781 256.757812 349.125 C 259.070312 349.578125 261.464844 349.335938 263.644531 348.429688 C 265.820312 347.527344 267.679688 346 268.992188 344.042969 C 270.304688 342.085938 271.011719 339.78125 271.023438 337.425781 L 271.023438 41.074219 C 271.023438 38.707031 270.324219 36.390625 269.007812 34.421875 C 267.691406 32.453125 265.824219 30.917969 263.636719 30.011719 C 261.449219 29.105469 259.039062 28.871094 256.71875 29.332031 C 254.394531 29.796875 252.261719 30.941406 250.589844 32.617188 C 253.574219 29.628906 257.414062 27.644531 261.578125 26.933594 C 265.738281 26.226562 270.019531 26.828125 273.824219 28.65625 L 341.171875 61.039062 C 344.648438 62.699219 347.582031 65.304688 349.640625 68.5625 C 351.695312 71.816406 352.792969 75.585938 352.796875 79.4375 L 352.796875 299.0625 C 352.796875 302.910156 351.710938 306.679688 349.664062 309.9375 C 347.613281 313.195312 344.6875 315.804688 341.21875 317.472656 Z M 273.871094 349.84375 " fill-opacity="1" fill-rule="nonzero"/></svg>