<svg xmlns="http://www.w3.org/2000/svg" xmlns:xlink="http://www.w3.org/1999/xlink" width="505" zoomAndPan="magnify" viewBox="0 0 378.75 378.749986" height="505" preserveAspectRatio="xMidYMid meet" version="1.0"><defs><clipPath id="15ee0bef34"><path d="M 0 0 L 378.5 0 L 378.5 378.5 L 0 378.5 Z M 0 0 " clip-rule="nonzero"/></clipPath></defs><g clip-path="url(#15ee0bef34)"><path fill="#ffffff" d="M 0 0 L 378.5 0 L 378.5 378.5 L 0 378.5 Z M 0 0 " fill-opacity="1" fill-rule="nonzero"/><path fill="#ffffff" d="M 0 0 L 378.5 0 L 378.5 378.5 L 0 378.5 Z M 0 0 " fill-opacity="1" fill-rule="nonzero"/><path fill="#29a3a3" d="M 355.316406 98.449219 C 356.128906 104.488281 356.585938 110.9375 356.585938 117.902344 C 356.585938 151.171875 353.5 153.046875 284.386719 352.839844 C 340.648438 320.023438 378.5 259.0625 378.5 189.25 C 378.5 156.339844 370.097656 125.398438 355.316406 98.449219 Z M 192.582031 205.808594 L 135.785156 370.792969 C 174.109375 382.074219 214.722656 380.925781 252.101562 367.789062 C 251.589844 366.976562 251.136719 366.101562 250.757812 365.175781 Z M 317.011719 179.695312 C 317.011719 156.304688 308.609375 140.097656 301.398438 127.496094 C 291.824219 111.898438 282.816406 98.714844 282.816406 83.121094 C 282.816406 65.726562 296.023438 49.53125 314.609375 49.53125 C 315.441406 49.53125 316.238281 49.640625 317.050781 49.679688 C 283.382812 18.832031 238.53125 0 189.25 0 C 123.144531 0 64.96875 33.910156 31.132812 85.292969 C 43.1875 85.671875 59.367188 85.828125 93.753906 83.140625 C 103.953125 82.535156 105.148438 97.515625 94.964844 98.710938 C 94.964844 98.710938 84.707031 99.925781 73.296875 100.53125 L 142.222656 305.527344 L 183.628906 181.304688 L 154.144531 100.511719 C 143.960938 99.925781 134.3125 98.710938 134.3125 98.710938 C 124.109375 98.105469 125.300781 82.515625 135.503906 83.121094 C 174.621094 86.128906 194.644531 86.355469 235.785156 83.121094 C 245.988281 82.515625 247.199219 97.5 236.996094 98.710938 C 236.996094 98.710938 226.722656 99.925781 215.328125 100.511719 L 283.722656 303.953125 C 310.730469 213.71875 317.011719 198.621094 317.011719 179.695312 Z M 0 189.25 C 0 264.15625 43.527344 328.898438 106.660156 359.574219 L 16.390625 112.230469 C 5.886719 135.769531 0 161.808594 0 189.25 Z M 0 189.25 " fill-opacity="1" fill-rule="evenodd"/></g></svg>